<svg width="400" height="400" viewBox="0 0 400 400" xmlns="http://www.w3.org/2000/svg">
<defs>
    <filter id="shadow" x="-20%" y="-20%" width="140%" height="140%">
        <feDropShadow dx="2" dy="4" stdDeviation="3" flood-opacity="0.3"/>
    </filter>
    <filter id="glow" x="-50%" y="-50%" width="200%" height="200%">
        <feGaussianBlur stdDeviation="8" result="blur"/>
        <feMerge><feMergeNode in="blur"/><feMergeNode in="SourceGraphic"/></feMerge>
    </filter>
    <linearGradient id="rainbow-body" x1="0%" y1="0%" x2="100%" y2="100%">
        <stop offset="0%" stop-color="#FF6B6B"/><stop offset="25%" stop-color="#FFE66D"/>
        <stop offset="50%" stop-color="#4ECDC4"/><stop offset="75%" stop-color="#45B7D1"/>
        <stop offset="100%" stop-color="#DDA0DD"/>
    </linearGradient>
    <radialGradient id="galaxy-body" cx="30%" cy="30%">
        <stop offset="0%" stop-color="#E6E6FA"/><stop offset="50%" stop-color="#9370DB"/>
        <stop offset="100%" stop-color="#1A0033"/>
    </radialGradient>
    <linearGradient id="holo-body" x1="0%" y1="0%" x2="100%" y2="100%">
        <stop offset="0%" stop-color="#FF00FF"/><stop offset="50%" stop-color="#00FFFF"/>
        <stop offset="100%" stop-color="#FFFF00"/>
    </linearGradient>
    <linearGradient id="sky-gradient" x1="0%" y1="0%" x2="0%" y2="100%">
        <stop offset="0%" stop-color="#87CEEB"/><stop offset="100%" stop-color="#E0F4FF"/>
    </linearGradient>
    <linearGradient id="grass-gradient" x1="0%" y1="0%" x2="0%" y2="100%">
        <stop offset="0%" stop-color="#90EE90"/><stop offset="100%" stop-color="#228B22"/>
    </linearGradient>
    <linearGradient id="sunset-gradient" x1="0%" y1="0%" x2="0%" y2="100%">
        <stop offset="0%" stop-color="#FF6B6B"/><stop offset="50%" stop-color="#FFE66D"/>
        <stop offset="100%" stop-color="#4ECDC4"/>
    </linearGradient>
    <linearGradient id="aurora-gradient" x1="0%" y1="0%" x2="100%" y2="100%">
        <stop offset="0%" stop-color="#0D1B2A"/><stop offset="30%" stop-color="#00FF7F"/>
        <stop offset="70%" stop-color="#FF00FF"/><stop offset="100%" stop-color="#0D1B2A"/>
    </linearGradient>
    <radialGradient id="multiverse-gradient" cx="50%" cy="50%">
        <stop offset="0%" stop-color="#FFD700"/><stop offset="40%" stop-color="#FF00FF"/>
        <stop offset="70%" stop-color="#00FFFF"/><stop offset="100%" stop-color="#000"/>
    </radialGradient>
    <linearGradient id="rift-gradient" x1="0%" y1="0%" x2="100%" y2="100%">
        <stop offset="0%" stop-color="#000"/><stop offset="30%" stop-color="#9400D3"/>
        <stop offset="50%" stop-color="#00FFFF"/><stop offset="70%" stop-color="#9400D3"/>
        <stop offset="100%" stop-color="#000"/>
    </linearGradient>
    <linearGradient id="heaven-gradient" x1="0%" y1="0%" x2="0%" y2="100%">
        <stop offset="0%" stop-color="#FFF"/><stop offset="50%" stop-color="#FFD700" stop-opacity="0.3"/>
        <stop offset="100%" stop-color="#F0F8FF"/>
    </linearGradient>
    <clipPath id="head-clip"><ellipse cx="200" cy="200" rx="110" ry="115"/></clipPath>
</defs>
<rect width="400" height="400" fill="#2C3E50"/>
<rect x="0" y="243" width="50" height="157" fill="#1A202C"/>
<rect x="22" y="253" width="6" height="8" fill="#FFD700" opacity="0.6"/>
<rect x="36" y="253" width="6" height="8" fill="#FFD700" opacity="0.6"/>
<rect x="22" y="271" width="6" height="8" fill="#FFD700" opacity="0.6"/>
<rect x="36" y="271" width="6" height="8" fill="#FFD700" opacity="0.6"/>
<rect x="22" y="289" width="6" height="8" fill="#FFD700" opacity="0.6"/>
<rect x="36" y="289" width="6" height="8" fill="#FFD700" opacity="0.6"/>
<rect x="22" y="307" width="6" height="8" fill="#FFD700" opacity="0.6"/>
<rect x="36" y="307" width="6" height="8" fill="#FFD700" opacity="0.6"/>
<rect x="22" y="325" width="6" height="8" fill="#FFD700" opacity="0.6"/>
<rect x="36" y="325" width="6" height="8" fill="#FFD700" opacity="0.6"/>
<rect x="22" y="343" width="6" height="8" fill="#FFD700" opacity="0.6"/>
<rect x="36" y="343" width="6" height="8" fill="#FFD700" opacity="0.6"/>
<rect x="22" y="361" width="6" height="8" fill="#FFD700" opacity="0.6"/>
<rect x="36" y="361" width="6" height="8" fill="#FFD700" opacity="0.6"/>
<rect x="22" y="379" width="6" height="8" fill="#FFD700" opacity="0.6"/>
<rect x="36" y="379" width="6" height="8" fill="#FFD700" opacity="0.6"/>
<rect x="60" y="246" width="50" height="154" fill="#1A202C"/>
<rect x="68" y="256" width="6" height="8" fill="#FFD700" opacity="0.6"/>
<rect x="96" y="256" width="6" height="8" fill="#FFD700" opacity="0.6"/>
<rect x="68" y="274" width="6" height="8" fill="#FFD700" opacity="0.6"/>
<rect x="96" y="274" width="6" height="8" fill="#FFD700" opacity="0.6"/>
<rect x="68" y="292" width="6" height="8" fill="#FFD700" opacity="0.6"/>
<rect x="96" y="292" width="6" height="8" fill="#FFD700" opacity="0.6"/>
<rect x="68" y="310" width="6" height="8" fill="#FFD700" opacity="0.6"/>
<rect x="96" y="310" width="6" height="8" fill="#FFD700" opacity="0.6"/>
<rect x="68" y="328" width="6" height="8" fill="#FFD700" opacity="0.6"/>
<rect x="96" y="328" width="6" height="8" fill="#FFD700" opacity="0.6"/>
<rect x="68" y="346" width="6" height="8" fill="#FFD700" opacity="0.6"/>
<rect x="96" y="346" width="6" height="8" fill="#FFD700" opacity="0.6"/>
<rect x="68" y="364" width="6" height="8" fill="#FFD700" opacity="0.6"/>
<rect x="96" y="364" width="6" height="8" fill="#FFD700" opacity="0.6"/>
<rect x="68" y="382" width="6" height="8" fill="#FFD700" opacity="0.6"/>
<rect x="96" y="382" width="6" height="8" fill="#FFD700" opacity="0.6"/>
<rect x="120" y="249" width="50" height="151" fill="#1A202C"/>
<rect x="128" y="259" width="6" height="8" fill="#FFD700" opacity="0.6"/>
<rect x="142" y="259" width="6" height="8" fill="#FFD700" opacity="0.6"/>
<rect x="128" y="277" width="6" height="8" fill="#FFD700" opacity="0.6"/>
<rect x="142" y="277" width="6" height="8" fill="#FFD700" opacity="0.6"/>
<rect x="128" y="295" width="6" height="8" fill="#FFD700" opacity="0.6"/>
<rect x="142" y="295" width="6" height="8" fill="#FFD700" opacity="0.6"/>
<rect x="128" y="313" width="6" height="8" fill="#FFD700" opacity="0.6"/>
<rect x="142" y="313" width="6" height="8" fill="#FFD700" opacity="0.6"/>
<rect x="128" y="331" width="6" height="8" fill="#FFD700" opacity="0.6"/>
<rect x="142" y="331" width="6" height="8" fill="#FFD700" opacity="0.6"/>
<rect x="128" y="349" width="6" height="8" fill="#FFD700" opacity="0.6"/>
<rect x="142" y="349" width="6" height="8" fill="#FFD700" opacity="0.6"/>
<rect x="128" y="367" width="6" height="8" fill="#FFD700" opacity="0.6"/>
<rect x="142" y="367" width="6" height="8" fill="#FFD700" opacity="0.6"/>
<rect x="128" y="385" width="6" height="8" fill="#FFD700" opacity="0.6"/>
<rect x="142" y="385" width="6" height="8" fill="#FFD700" opacity="0.6"/>
<rect x="180" y="252" width="50" height="148" fill="#1A202C"/>
<rect x="202" y="262" width="6" height="8" fill="#FFD700" opacity="0.6"/>
<rect x="216" y="262" width="6" height="8" fill="#FFD700" opacity="0.6"/>
<rect x="202" y="280" width="6" height="8" fill="#FFD700" opacity="0.6"/>
<rect x="216" y="280" width="6" height="8" fill="#FFD700" opacity="0.6"/>
<rect x="202" y="298" width="6" height="8" fill="#FFD700" opacity="0.6"/>
<rect x="216" y="298" width="6" height="8" fill="#FFD700" opacity="0.6"/>
<rect x="202" y="316" width="6" height="8" fill="#FFD700" opacity="0.6"/>
<rect x="216" y="316" width="6" height="8" fill="#FFD700" opacity="0.6"/>
<rect x="202" y="334" width="6" height="8" fill="#FFD700" opacity="0.6"/>
<rect x="216" y="334" width="6" height="8" fill="#FFD700" opacity="0.6"/>
<rect x="202" y="352" width="6" height="8" fill="#FFD700" opacity="0.6"/>
<rect x="216" y="352" width="6" height="8" fill="#FFD700" opacity="0.6"/>
<rect x="202" y="370" width="6" height="8" fill="#FFD700" opacity="0.6"/>
<rect x="216" y="370" width="6" height="8" fill="#FFD700" opacity="0.6"/>
<rect x="202" y="388" width="6" height="8" fill="#FFD700" opacity="0.6"/>
<rect x="216" y="388" width="6" height="8" fill="#FFD700" opacity="0.6"/>
<rect x="240" y="255" width="50" height="145" fill="#1A202C"/>
<rect x="248" y="265" width="6" height="8" fill="#FFD700" opacity="0.6"/>
<rect x="276" y="265" width="6" height="8" fill="#FFD700" opacity="0.6"/>
<rect x="248" y="283" width="6" height="8" fill="#FFD700" opacity="0.6"/>
<rect x="276" y="283" width="6" height="8" fill="#FFD700" opacity="0.6"/>
<rect x="248" y="301" width="6" height="8" fill="#FFD700" opacity="0.6"/>
<rect x="276" y="301" width="6" height="8" fill="#FFD700" opacity="0.6"/>
<rect x="248" y="319" width="6" height="8" fill="#FFD700" opacity="0.6"/>
<rect x="276" y="319" width="6" height="8" fill="#FFD700" opacity="0.6"/>
<rect x="248" y="337" width="6" height="8" fill="#FFD700" opacity="0.6"/>
<rect x="276" y="337" width="6" height="8" fill="#FFD700" opacity="0.6"/>
<rect x="248" y="355" width="6" height="8" fill="#FFD700" opacity="0.6"/>
<rect x="276" y="355" width="6" height="8" fill="#FFD700" opacity="0.6"/>
<rect x="248" y="373" width="6" height="8" fill="#FFD700" opacity="0.6"/>
<rect x="276" y="373" width="6" height="8" fill="#FFD700" opacity="0.6"/>
<rect x="300" y="258" width="50" height="142" fill="#1A202C"/>
<rect x="308" y="268" width="6" height="8" fill="#FFD700" opacity="0.6"/>
<rect x="322" y="268" width="6" height="8" fill="#FFD700" opacity="0.6"/>
<rect x="308" y="286" width="6" height="8" fill="#FFD700" opacity="0.6"/>
<rect x="322" y="286" width="6" height="8" fill="#FFD700" opacity="0.6"/>
<rect x="308" y="304" width="6" height="8" fill="#FFD700" opacity="0.6"/>
<rect x="322" y="304" width="6" height="8" fill="#FFD700" opacity="0.6"/>
<rect x="308" y="322" width="6" height="8" fill="#FFD700" opacity="0.6"/>
<rect x="322" y="322" width="6" height="8" fill="#FFD700" opacity="0.6"/>
<rect x="308" y="340" width="6" height="8" fill="#FFD700" opacity="0.6"/>
<rect x="322" y="340" width="6" height="8" fill="#FFD700" opacity="0.6"/>
<rect x="308" y="358" width="6" height="8" fill="#FFD700" opacity="0.6"/>
<rect x="322" y="358" width="6" height="8" fill="#FFD700" opacity="0.6"/>
<rect x="308" y="376" width="6" height="8" fill="#FFD700" opacity="0.6"/>
<rect x="322" y="376" width="6" height="8" fill="#FFD700" opacity="0.6"/>
<rect x="360" y="261" width="50" height="139" fill="#1A202C"/>
<rect x="382" y="271" width="6" height="8" fill="#FFD700" opacity="0.6"/>
<rect x="396" y="271" width="6" height="8" fill="#FFD700" opacity="0.6"/>
<rect x="382" y="289" width="6" height="8" fill="#FFD700" opacity="0.6"/>
<rect x="396" y="289" width="6" height="8" fill="#FFD700" opacity="0.6"/>
<rect x="382" y="307" width="6" height="8" fill="#FFD700" opacity="0.6"/>
<rect x="396" y="307" width="6" height="8" fill="#FFD700" opacity="0.6"/>
<rect x="382" y="325" width="6" height="8" fill="#FFD700" opacity="0.6"/>
<rect x="396" y="325" width="6" height="8" fill="#FFD700" opacity="0.6"/>
<rect x="382" y="343" width="6" height="8" fill="#FFD700" opacity="0.6"/>
<rect x="396" y="343" width="6" height="8" fill="#FFD700" opacity="0.6"/>
<rect x="382" y="361" width="6" height="8" fill="#FFD700" opacity="0.6"/>
<rect x="396" y="361" width="6" height="8" fill="#FFD700" opacity="0.6"/>
<rect x="382" y="379" width="6" height="8" fill="#FFD700" opacity="0.6"/>
<rect x="396" y="379" width="6" height="8" fill="#FFD700" opacity="0.6"/>

<ellipse cx="115" cy="140" rx="45" ry="50" fill="#CD7F32" filter="url(#shadow)"/>
<ellipse cx="115" cy="140" rx="30" ry="35" fill="#FFB6C1"/>
<ellipse cx="115" cy="145" rx="18" ry="22" fill="#FF9999"/>
<ellipse cx="285" cy="140" rx="45" ry="50" fill="#CD7F32" filter="url(#shadow)"/>
<ellipse cx="285" cy="140" rx="30" ry="35" fill="#FFB6C1"/>
<ellipse cx="285" cy="145" rx="18" ry="22" fill="#FF9999"/>
<ellipse cx="200" cy="200" rx="110" ry="115" fill="#CD7F32" filter="url(#shadow)"/>
<ellipse cx="180" cy="140" rx="50" ry="30" fill="#DAA06D" opacity="0.3"/>
<g clip-path="url(#head-clip)"><text x="125" y="125" font-size="18" fill="#00CED1" opacity="0.35">◆</text><text x="152" y="266" font-size="18" fill="#00CED1" opacity="0.35">◆</text><text x="179" y="257" font-size="18" fill="#00CED1" opacity="0.35">◆</text><text x="206" y="248" font-size="18" fill="#00CED1" opacity="0.35">◆</text><text x="233" y="239" font-size="18" fill="#00CED1" opacity="0.35">◆</text><text x="260" y="230" font-size="18" fill="#00CED1" opacity="0.35">◆</text><text x="137" y="221" font-size="18" fill="#00CED1" opacity="0.35">◆</text><text x="164" y="212" font-size="18" fill="#00CED1" opacity="0.35">◆</text></g>
<ellipse cx="200" cy="235" rx="70" ry="60" fill="#FFDAB9"/>
<ellipse cx="200" cy="250" rx="55" ry="40" fill="#DEB887" opacity="0.3"/>
<ellipse cx="162" cy="185" rx="22" ry="24" fill="#000" opacity="0.08"/>
<ellipse cx="238" cy="185" rx="22" ry="24" fill="#000" opacity="0.08"/>
<ellipse cx="162" cy="185" rx="18" ry="20" fill="#E6E6FA" filter="url(#glow)"/>
<circle cx="162" cy="185" r="10" fill="#9370DB"/>
<circle cx="162" cy="185" r="4" fill="#FFF"/>
<ellipse cx="238" cy="185" rx="18" ry="20" fill="#E6E6FA" filter="url(#glow)"/>
<circle cx="238" cy="185" r="10" fill="#9370DB"/>
<circle cx="238" cy="185" r="4" fill="#FFF"/>
<g>
            <ellipse cx="200" cy="230" rx="25" ry="18" fill="#8B4513"/>
            <ellipse cx="200" cy="230" rx="22" ry="15" fill="#A0522D"/>
            <ellipse cx="192" cy="230" rx="5" ry="7" fill="#5D2E0C"/>
            <ellipse cx="208" cy="230" rx="5" ry="7" fill="#5D2E0C"/>
        </g>
<path d="M178 260 Q200 268 222 260" stroke="#5D2E0C" stroke-width="2" fill="none"/>
<polygon points="155,70 170,35 190,60 210,35 230,60 245,35 245,85 155,85" fill="#FFD700" stroke="#B8860B" stroke-width="3"/><circle cx="200" cy="45" r="8" fill="#E74C3C"/><circle cx="175" cy="55" r="5" fill="#3498DB"/><circle cx="225" cy="55" r="5" fill="#2ECC71"/>
<circle cx="200" cy="200" r="135" fill="none" stroke="#FFD700" stroke-width="6" opacity="0.25"/>
<g transform="translate(325, 15)">
            <rect width="65" height="22" rx="4" fill="#4ECDC4" opacity="0.9"/>
            <text x="32" y="15" font-size="8" fill="#FFF" text-anchor="middle" font-family="sans-serif" font-weight="bold">UNCOMMON</text>
        </g>
        <g transform="translate(10, 15)">
            <rect width="45" height="22" rx="4" fill="#333" opacity="0.8"/>
            <text x="22" y="15" font-size="9" fill="#FFF" text-anchor="middle" font-family="sans-serif">Gen 2</text>
        </g>
</svg>