<svg width="400" height="400" viewBox="0 0 400 400" xmlns="http://www.w3.org/2000/svg">
<defs>
    <filter id="shadow" x="-20%" y="-20%" width="140%" height="140%">
        <feDropShadow dx="2" dy="4" stdDeviation="3" flood-opacity="0.3"/>
    </filter>
    <filter id="glow" x="-50%" y="-50%" width="200%" height="200%">
        <feGaussianBlur stdDeviation="8" result="blur"/>
        <feMerge><feMergeNode in="blur"/><feMergeNode in="SourceGraphic"/></feMerge>
    </filter>
    <linearGradient id="rainbow-body" x1="0%" y1="0%" x2="100%" y2="100%">
        <stop offset="0%" stop-color="#FF6B6B"/><stop offset="25%" stop-color="#FFE66D"/>
        <stop offset="50%" stop-color="#4ECDC4"/><stop offset="75%" stop-color="#45B7D1"/>
        <stop offset="100%" stop-color="#DDA0DD"/>
    </linearGradient>
    <radialGradient id="galaxy-body" cx="30%" cy="30%">
        <stop offset="0%" stop-color="#E6E6FA"/><stop offset="50%" stop-color="#9370DB"/>
        <stop offset="100%" stop-color="#1A0033"/>
    </radialGradient>
    <linearGradient id="holo-body" x1="0%" y1="0%" x2="100%" y2="100%">
        <stop offset="0%" stop-color="#FF00FF"/><stop offset="50%" stop-color="#00FFFF"/>
        <stop offset="100%" stop-color="#FFFF00"/>
    </linearGradient>
    <linearGradient id="sky-gradient" x1="0%" y1="0%" x2="0%" y2="100%">
        <stop offset="0%" stop-color="#87CEEB"/><stop offset="100%" stop-color="#E0F4FF"/>
    </linearGradient>
    <linearGradient id="grass-gradient" x1="0%" y1="0%" x2="0%" y2="100%">
        <stop offset="0%" stop-color="#90EE90"/><stop offset="100%" stop-color="#228B22"/>
    </linearGradient>
    <linearGradient id="sunset-gradient" x1="0%" y1="0%" x2="0%" y2="100%">
        <stop offset="0%" stop-color="#FF6B6B"/><stop offset="50%" stop-color="#FFE66D"/>
        <stop offset="100%" stop-color="#4ECDC4"/>
    </linearGradient>
    <linearGradient id="aurora-gradient" x1="0%" y1="0%" x2="100%" y2="100%">
        <stop offset="0%" stop-color="#0D1B2A"/><stop offset="30%" stop-color="#00FF7F"/>
        <stop offset="70%" stop-color="#FF00FF"/><stop offset="100%" stop-color="#0D1B2A"/>
    </linearGradient>
    <radialGradient id="multiverse-gradient" cx="50%" cy="50%">
        <stop offset="0%" stop-color="#FFD700"/><stop offset="40%" stop-color="#FF00FF"/>
        <stop offset="70%" stop-color="#00FFFF"/><stop offset="100%" stop-color="#000"/>
    </radialGradient>
    <linearGradient id="rift-gradient" x1="0%" y1="0%" x2="100%" y2="100%">
        <stop offset="0%" stop-color="#000"/><stop offset="30%" stop-color="#9400D3"/>
        <stop offset="50%" stop-color="#00FFFF"/><stop offset="70%" stop-color="#9400D3"/>
        <stop offset="100%" stop-color="#000"/>
    </linearGradient>
    <linearGradient id="heaven-gradient" x1="0%" y1="0%" x2="0%" y2="100%">
        <stop offset="0%" stop-color="#FFF"/><stop offset="50%" stop-color="#FFD700" stop-opacity="0.3"/>
        <stop offset="100%" stop-color="#F0F8FF"/>
    </linearGradient>
    <clipPath id="head-clip"><ellipse cx="200" cy="200" rx="110" ry="115"/></clipPath>
</defs>
<rect width="400" height="400" fill="#2C3E50"/>
<rect x="0" y="263" width="50" height="137" fill="#1A202C"/>
<rect x="8" y="273" width="6" height="8" fill="#FFD700" opacity="0.6"/>
<rect x="36" y="273" width="6" height="8" fill="#FFD700" opacity="0.6"/>
<rect x="8" y="291" width="6" height="8" fill="#FFD700" opacity="0.6"/>
<rect x="36" y="291" width="6" height="8" fill="#FFD700" opacity="0.6"/>
<rect x="8" y="309" width="6" height="8" fill="#FFD700" opacity="0.6"/>
<rect x="36" y="309" width="6" height="8" fill="#FFD700" opacity="0.6"/>
<rect x="8" y="327" width="6" height="8" fill="#FFD700" opacity="0.6"/>
<rect x="36" y="327" width="6" height="8" fill="#FFD700" opacity="0.6"/>
<rect x="8" y="345" width="6" height="8" fill="#FFD700" opacity="0.6"/>
<rect x="36" y="345" width="6" height="8" fill="#FFD700" opacity="0.6"/>
<rect x="8" y="363" width="6" height="8" fill="#FFD700" opacity="0.6"/>
<rect x="36" y="363" width="6" height="8" fill="#FFD700" opacity="0.6"/>
<rect x="8" y="381" width="6" height="8" fill="#FFD700" opacity="0.6"/>
<rect x="36" y="381" width="6" height="8" fill="#FFD700" opacity="0.6"/>
<rect x="60" y="286" width="50" height="114" fill="#1A202C"/>
<rect x="68" y="296" width="6" height="8" fill="#FFD700" opacity="0.6"/>
<rect x="82" y="296" width="6" height="8" fill="#FFD700" opacity="0.6"/>
<rect x="68" y="314" width="6" height="8" fill="#FFD700" opacity="0.6"/>
<rect x="82" y="314" width="6" height="8" fill="#FFD700" opacity="0.6"/>
<rect x="68" y="332" width="6" height="8" fill="#FFD700" opacity="0.6"/>
<rect x="82" y="332" width="6" height="8" fill="#FFD700" opacity="0.6"/>
<rect x="68" y="350" width="6" height="8" fill="#FFD700" opacity="0.6"/>
<rect x="82" y="350" width="6" height="8" fill="#FFD700" opacity="0.6"/>
<rect x="68" y="368" width="6" height="8" fill="#FFD700" opacity="0.6"/>
<rect x="82" y="368" width="6" height="8" fill="#FFD700" opacity="0.6"/>
<rect x="68" y="386" width="6" height="8" fill="#FFD700" opacity="0.6"/>
<rect x="82" y="386" width="6" height="8" fill="#FFD700" opacity="0.6"/>
<rect x="120" y="309" width="50" height="91" fill="#1A202C"/>
<rect x="142" y="319" width="6" height="8" fill="#FFD700" opacity="0.6"/>
<rect x="156" y="319" width="6" height="8" fill="#FFD700" opacity="0.6"/>
<rect x="142" y="337" width="6" height="8" fill="#FFD700" opacity="0.6"/>
<rect x="156" y="337" width="6" height="8" fill="#FFD700" opacity="0.6"/>
<rect x="142" y="355" width="6" height="8" fill="#FFD700" opacity="0.6"/>
<rect x="156" y="355" width="6" height="8" fill="#FFD700" opacity="0.6"/>
<rect x="142" y="373" width="6" height="8" fill="#FFD700" opacity="0.6"/>
<rect x="156" y="373" width="6" height="8" fill="#FFD700" opacity="0.6"/>
<rect x="180" y="242" width="50" height="158" fill="#1A202C"/>
<rect x="188" y="252" width="6" height="8" fill="#FFD700" opacity="0.6"/>
<rect x="216" y="252" width="6" height="8" fill="#FFD700" opacity="0.6"/>
<rect x="188" y="270" width="6" height="8" fill="#FFD700" opacity="0.6"/>
<rect x="216" y="270" width="6" height="8" fill="#FFD700" opacity="0.6"/>
<rect x="188" y="288" width="6" height="8" fill="#FFD700" opacity="0.6"/>
<rect x="216" y="288" width="6" height="8" fill="#FFD700" opacity="0.6"/>
<rect x="188" y="306" width="6" height="8" fill="#FFD700" opacity="0.6"/>
<rect x="216" y="306" width="6" height="8" fill="#FFD700" opacity="0.6"/>
<rect x="188" y="324" width="6" height="8" fill="#FFD700" opacity="0.6"/>
<rect x="216" y="324" width="6" height="8" fill="#FFD700" opacity="0.6"/>
<rect x="188" y="342" width="6" height="8" fill="#FFD700" opacity="0.6"/>
<rect x="216" y="342" width="6" height="8" fill="#FFD700" opacity="0.6"/>
<rect x="188" y="360" width="6" height="8" fill="#FFD700" opacity="0.6"/>
<rect x="216" y="360" width="6" height="8" fill="#FFD700" opacity="0.6"/>
<rect x="188" y="378" width="6" height="8" fill="#FFD700" opacity="0.6"/>
<rect x="216" y="378" width="6" height="8" fill="#FFD700" opacity="0.6"/>
<rect x="240" y="265" width="50" height="135" fill="#1A202C"/>
<rect x="248" y="275" width="6" height="8" fill="#FFD700" opacity="0.6"/>
<rect x="262" y="275" width="6" height="8" fill="#FFD700" opacity="0.6"/>
<rect x="248" y="293" width="6" height="8" fill="#FFD700" opacity="0.6"/>
<rect x="262" y="293" width="6" height="8" fill="#FFD700" opacity="0.6"/>
<rect x="248" y="311" width="6" height="8" fill="#FFD700" opacity="0.6"/>
<rect x="262" y="311" width="6" height="8" fill="#FFD700" opacity="0.6"/>
<rect x="248" y="329" width="6" height="8" fill="#FFD700" opacity="0.6"/>
<rect x="262" y="329" width="6" height="8" fill="#FFD700" opacity="0.6"/>
<rect x="248" y="347" width="6" height="8" fill="#FFD700" opacity="0.6"/>
<rect x="262" y="347" width="6" height="8" fill="#FFD700" opacity="0.6"/>
<rect x="248" y="365" width="6" height="8" fill="#FFD700" opacity="0.6"/>
<rect x="262" y="365" width="6" height="8" fill="#FFD700" opacity="0.6"/>
<rect x="248" y="383" width="6" height="8" fill="#FFD700" opacity="0.6"/>
<rect x="262" y="383" width="6" height="8" fill="#FFD700" opacity="0.6"/>
<rect x="300" y="288" width="50" height="112" fill="#1A202C"/>
<rect x="322" y="298" width="6" height="8" fill="#FFD700" opacity="0.6"/>
<rect x="336" y="298" width="6" height="8" fill="#FFD700" opacity="0.6"/>
<rect x="322" y="316" width="6" height="8" fill="#FFD700" opacity="0.6"/>
<rect x="336" y="316" width="6" height="8" fill="#FFD700" opacity="0.6"/>
<rect x="322" y="334" width="6" height="8" fill="#FFD700" opacity="0.6"/>
<rect x="336" y="334" width="6" height="8" fill="#FFD700" opacity="0.6"/>
<rect x="322" y="352" width="6" height="8" fill="#FFD700" opacity="0.6"/>
<rect x="336" y="352" width="6" height="8" fill="#FFD700" opacity="0.6"/>
<rect x="322" y="370" width="6" height="8" fill="#FFD700" opacity="0.6"/>
<rect x="336" y="370" width="6" height="8" fill="#FFD700" opacity="0.6"/>
<rect x="322" y="388" width="6" height="8" fill="#FFD700" opacity="0.6"/>
<rect x="336" y="388" width="6" height="8" fill="#FFD700" opacity="0.6"/>
<rect x="360" y="311" width="50" height="89" fill="#1A202C"/>
<rect x="368" y="321" width="6" height="8" fill="#FFD700" opacity="0.6"/>
<rect x="396" y="321" width="6" height="8" fill="#FFD700" opacity="0.6"/>
<rect x="368" y="339" width="6" height="8" fill="#FFD700" opacity="0.6"/>
<rect x="396" y="339" width="6" height="8" fill="#FFD700" opacity="0.6"/>
<rect x="368" y="357" width="6" height="8" fill="#FFD700" opacity="0.6"/>
<rect x="396" y="357" width="6" height="8" fill="#FFD700" opacity="0.6"/>
<rect x="368" y="375" width="6" height="8" fill="#FFD700" opacity="0.6"/>
<rect x="396" y="375" width="6" height="8" fill="#FFD700" opacity="0.6"/>

<ellipse cx="115" cy="140" rx="45" ry="50" fill="#D2B48C" filter="url(#shadow)"/>
<ellipse cx="115" cy="140" rx="30" ry="35" fill="#FFB6C1"/>
<ellipse cx="115" cy="145" rx="18" ry="22" fill="#FF9999"/>
<ellipse cx="285" cy="140" rx="45" ry="50" fill="#D2B48C" filter="url(#shadow)"/>
<ellipse cx="285" cy="140" rx="30" ry="35" fill="#FFB6C1"/>
<ellipse cx="285" cy="145" rx="18" ry="22" fill="#FF9999"/>
<ellipse cx="200" cy="200" rx="110" ry="115" fill="#D2B48C" filter="url(#shadow)"/>
<ellipse cx="180" cy="140" rx="50" ry="30" fill="#E8D4B8" opacity="0.3"/>
<g clip-path="url(#head-clip)"><circle cx="110" cy="110" r="12" fill="#000" opacity="0.12"/><circle cx="129" cy="217" r="12" fill="#000" opacity="0.12"/><circle cx="148" cy="144" r="12" fill="#000" opacity="0.12"/><circle cx="167" cy="251" r="12" fill="#000" opacity="0.12"/><circle cx="186" cy="178" r="12" fill="#000" opacity="0.12"/><circle cx="205" cy="285" r="12" fill="#000" opacity="0.12"/><circle cx="224" cy="212" r="12" fill="#000" opacity="0.12"/><circle cx="243" cy="139" r="12" fill="#000" opacity="0.12"/><circle cx="262" cy="246" r="12" fill="#000" opacity="0.12"/><circle cx="281" cy="173" r="12" fill="#000" opacity="0.12"/></g>
<ellipse cx="200" cy="235" rx="70" ry="60" fill="#FFDAB9"/>
<ellipse cx="200" cy="250" rx="55" ry="40" fill="#DEB887" opacity="0.3"/>
<ellipse cx="162" cy="185" rx="22" ry="24" fill="#000" opacity="0.08"/>
<ellipse cx="238" cy="185" rx="22" ry="24" fill="#000" opacity="0.08"/>
<ellipse cx="162" cy="185" rx="18" ry="20" fill="white"/>
<circle cx="162" cy="185" r="12" fill="#3D2314"/>
<circle cx="162" cy="185" r="6" fill="#000"/>
<circle cx="166" cy="181" r="4" fill="white"/>
<ellipse cx="238" cy="185" rx="18" ry="20" fill="white"/>
<circle cx="238" cy="185" r="12" fill="#3D2314"/>
<circle cx="238" cy="185" r="6" fill="#000"/>
<circle cx="242" cy="181" r="4" fill="white"/>
<g>
            <ellipse cx="200" cy="230" rx="25" ry="18" fill="#8B4513"/>
            <ellipse cx="200" cy="230" rx="22" ry="15" fill="#A0522D"/>
            <ellipse cx="192" cy="230" rx="5" ry="7" fill="#5D2E0C"/>
            <ellipse cx="208" cy="230" rx="5" ry="7" fill="#5D2E0C"/>
        </g>
<line x1="182" y1="260" x2="218" y2="260" stroke="#5D2E0C" stroke-width="2"/>
<ellipse cx="130" cy="130" rx="20" ry="15" fill="#FF69B4"/><ellipse cx="130" cy="130" rx="8" ry="8" fill="#FF1493"/><polygon points="130,115 145,130 130,145" fill="#FF69B4"/>

<g transform="translate(325, 15)">
            <rect width="65" height="22" rx="4" fill="#A0A0A0" opacity="0.9"/>
            <text x="32" y="15" font-size="8" fill="#FFF" text-anchor="middle" font-family="sans-serif" font-weight="bold">COMMON</text>
        </g>
        <g transform="translate(10, 15)">
            <rect width="45" height="22" rx="4" fill="#333" opacity="0.8"/>
            <text x="22" y="15" font-size="9" fill="#FFF" text-anchor="middle" font-family="sans-serif">Gen 2</text>
        </g>
</svg>